<svg id="Layer_1" data-name="Layer 1" xmlns="http://www.w3.org/2000/svg" viewBox="0 0 633.86 349.87"><text transform="translate(0 281.33)" style="font-size:61px;fill:#005ea0;font-family:Arial-BoldMT, Arial;font-weight:700">Provost Home Design</text><text transform="translate(2.61 334.43)" style="font-size:41px;fill:#005ea0;font-family:Arial-BoldMT, Arial;font-weight:700;letter-spacing:0.005001905487804878em">Custom House &amp; Framing Plans</text><polyline points="228.05 203.39 228.05 216.71 281.92 216.71 281.92 203.25 264 185.33" style="fill:none;stroke:#000;stroke-miterlimit:10;stroke-width:2px"/><polyline points="629.65 202.74 428.74 2.45 228.05 203.39" style="fill:none;stroke:#000;stroke-miterlimit:10;stroke-width:3px"/><polyline points="629.21 209.25 428.74 10.27 323.69 116.44" style="fill:none;stroke:#000;stroke-miterlimit:10;stroke-width:2px"/><polyline points="629.65 201.87 630.08 216.2 574.91 216.2 574.91 201.87 609.66 201.87 428.42 22 329.77 122.52" style="fill:none;stroke:#000;stroke-miterlimit:10;stroke-width:2px"/><path d="M591.08,189.34l-17.16,17.15" transform="translate(0.77 -4.84)" style="fill:none;stroke:#000;stroke-miterlimit:10;stroke-width:2px"/><polyline points="585.34 191.01 428.74 35.35 335.75 129.15" style="fill:none;stroke:#000;stroke-miterlimit:10;stroke-width:2px"/><path d="M550.68,126.35" transform="translate(0.77 -4.84)" style="fill:none;stroke:#000;stroke-miterlimit:10;stroke-width:2px"/><polyline points="408.7 203.79 208.51 2.12 7.38 202.81" style="fill:none;stroke:#000;stroke-miterlimit:10;stroke-width:3px"/><polyline points="353.16 203.63 353.16 217.15 408.54 216.98 408.7 203.79" style="fill:none;stroke:#000;stroke-miterlimit:10;stroke-width:2px"/><polyline points="7.82 209.33 208.18 10.27 313.95 117.13" style="fill:none;stroke:#000;stroke-miterlimit:10;stroke-width:2px"/><polyline points="7.38 201.94 6.95 216.28 62.12 216.28 62.12 201.94 27.37 201.94 208.51 22 307.98 122.02" style="fill:none;stroke:#000;stroke-miterlimit:10;stroke-width:2px"/><path d="M44.41,189.41l17.15,17.16" transform="translate(0.77 -4.84)" style="fill:none;stroke:#000;stroke-miterlimit:10;stroke-width:2px"/><polyline points="51.69 191.08 208.07 35.57 301.68 129.18" style="fill:none;stroke:#000;stroke-miterlimit:10;stroke-width:2px"/><path d="M84.8,126.42" transform="translate(0.77 -4.84)" style="fill:none;stroke:#000;stroke-miterlimit:10;stroke-width:2px"/><polyline points="86.16 121.58 85.86 4.35 130.16 4.24 130.36 78.08" style="fill:none;stroke:#000;stroke-miterlimit:10;stroke-width:2px"/><path d="M227.07,214.17c1.62-1.63,90.46-90.24,90.46-90.24l90.4,90.4" transform="translate(0.77 -4.84)" style="fill:none;stroke:#000;stroke-miterlimit:10;stroke-width:2px"/><path d="M281.15,208.09c-4.67,0-37.8,1.52-36.27,0L316.93,136l72.43,72.44-35.83-.33,18.24-17.43" transform="translate(0.77 -4.84)" style="fill:none;stroke:#000;stroke-miterlimit:10;stroke-width:2px"/><path d="M270.61,196.25l45.45-45.45,46.75,46.75" transform="translate(0.77 -4.84)" style="fill:none;stroke:#000;stroke-miterlimit:10;stroke-width:2px"/><line x1="187.88" y1="120.17" x2="229.91" y2="120.17" style="fill:none;stroke:#000;stroke-miterlimit:10;stroke-width:2px"/><rect x="187.67" y="99.54" width="42.14" height="42.14" style="fill:none;stroke:#000;stroke-miterlimit:10;stroke-width:3px"/><rect x="179.63" y="91.39" width="57.99" height="57.99" style="fill:none;stroke:#000;stroke-miterlimit:10;stroke-width:2px"/><path d="M207.8,146.35" transform="translate(0.77 -4.84)" style="fill:none;stroke:#000;stroke-miterlimit:10;stroke-width:2px"/><path d="M207.8,104.16" transform="translate(0.77 -4.84)" style="fill:none;stroke:#000;stroke-miterlimit:10;stroke-width:2px"/><line x1="208.57" y1="99.32" x2="208.57" y2="140.86" style="fill:none;stroke:#000;stroke-miterlimit:10;stroke-width:2px"/><line x1="407.36" y1="119.08" x2="449.39" y2="119.08" style="fill:none;stroke:#000;stroke-miterlimit:10;stroke-width:2px"/><rect x="407.14" y="98.45" width="42.14" height="42.14" style="fill:none;stroke:#000;stroke-miterlimit:10;stroke-width:3px"/><rect x="399.11" y="90.3" width="57.99" height="57.99" style="fill:none;stroke:#000;stroke-miterlimit:10;stroke-width:2px"/><path d="M427.28,145.26" transform="translate(0.77 -4.84)" style="fill:none;stroke:#000;stroke-miterlimit:10;stroke-width:2px"/><path d="M427.28,103.07" transform="translate(0.77 -4.84)" style="fill:none;stroke:#000;stroke-miterlimit:10;stroke-width:2px"/><line x1="428.05" y1="98.23" x2="428.05" y2="139.77" style="fill:none;stroke:#000;stroke-miterlimit:10;stroke-width:2px"/></svg>